
		<svg xmlns="http://www.w3.org/2000/svg" xmlns:xlink="http://www.w3.org/1999/xlink" version="1.1" width="3200" height="1060">
			
			<g transform="scale(10) translate(10, 10)">
				<defs id="SvgjsDefs6985"></defs><g id="SvgjsG6986" featureKey="root" fill="#ffffff"></g><g id="SvgjsG6987" featureKey="symbol1" fill="#c43636" transform="matrix(0.7291666666666666,0,0,0.7291666666666666,215.54166666666666,14.853943705558777)"><g xmlns="http://www.w3.org/2000/svg"><path d="M15,11.3c-1.1-2.1-4.3-2-5.1-1.8C9.1,9.7,8.4,9.4,8.4,9.4l-5.6,4.4c-0.4,0.3-0.6,0.7-0.7,1.2L2,15.6c0,0,4-1.4,5.1-1.7   C9.5,13.3,16.2,13.4,15,11.3z"></path><path d="M96.4,50.7c-3.6-4.5-9.6-12.4-13.5-18.2c-3.9-5.8-12-14.3-16-14.5c-3.9-0.2-8.3,1.3-8.3,1.3l2.1-2.1   c-2.6,0-14.3,3.4-21.3,8.8c-7,5.5-11.7,6.2-13.4,4.5c-1.7-1.7-3.9-3.9-4.3-6.2c-0.8-5.6,1.3-7.3,0.9-12.8   c-0.5-7.7-7.1-9.8-10.5-7.9C8.8,5.6,8.7,8,8.7,8c0.7,0.9,2.3,0,3.9,0.4c2.4,0.7,4.2,2.2,3.9,3.9c-0.5,2.1-6.3,2.3-6.3,2.3   c0.9,0.8,3.4,3.2,3.2,6.4c-0.1,0.8-1.3,7.2-1.3,7.2c-2.6,17.3,8.6,21.4,14.4,26.3c9.4,7.9,24.1,6.2,35,6.2c5.3,0,12.8,0.5,16.6-0.1   c1.5-0.3,2-0.1,3.4,0.4c0.5,0.2,1,0.4,1.6,0.6c2.8,1.6,6.5,4.4,8.2,8.8l1.4,3.7c0,0,1.1-3.7,0.6-6.8c0,0,1.4,1.4,1.4,4.5l1.7-5.1   C96.4,66.7,100,55.3,96.4,50.7z M17,9.6c-0.5,0-1-0.4-1-1c0-0.5,0.4-1,1-1s1,0.4,1,1C18,9.2,17.5,9.6,17,9.6z"></path><path d="M64.7,83.3c-0.2-4.8,0-7.3,0.1-8.5c0.1-1.1,0.1-1.6-0.7-4.1c-0.8-2.5-2.2-8.4-2.2-8.4s-5,0.2-8.7-0.3c0,0,5.2,3.8,6.5,11   c0,0-0.1,1.7,1.1,3.5c0,0,1.5,11.5,1.2,16.3c0,0-1.9,1.6-3.6,1.8c-1.7,0.2-3.4,1.3-3.5,2.2c0,0,0.6-0.4,1.1-0.4   c0.6,0,0.9,0.7,3.1,0.2c2.2-0.5,4.6-1.4,5.4-1.4c0,0-0.3,1.5,0.1,1.8c0,0,3.2-2.5,1.3-4.4C66.1,92.5,64.9,88.1,64.7,83.3z"></path><path d="M51.4,89.1c0.1-0.9,7.1-14.3,7.1-14.3l-0.1-2.6c0,0-1.4-6.3-6.7-9.9l-2,0.2c0,0,2.7,3.4,3.4,5.3c0.7,1.9,1.5,3.6,1.5,4.6   c0,0-0.8,1-0.8,2.3c0.1,1.2,0.2,2,0.2,2s-3.8,9.1-5.5,11.2c0,0-0.9,1.1-0.9,1.5c0,0.4-0.7,1.3-0.7,1.3s-2.2,1.8-3.3,2.1   s-1.9,0.1-2.4,1c-0.6,0.9-0.6,0.9-0.6,0.9s0.8-0.6,1.4-0.6c0.7,0,1.4,0.8,3.1-0.1c1.7-0.8,2.9-0.8,2.9-0.8l-1,0.9   c0,0,2.4-0.1,3.4-0.8c1-0.8-0.5-1.2,0.1-1.9C51.1,90.8,51.3,90.1,51.4,89.1z"></path></g></g><g id="SvgjsG6988" featureKey="text1" fill="#45636c" transform="matrix(4.100418533807083,0,0,4.100418533807083,-2.5008432991519056,-43.165743529193044)"><path d="M7.8644 20.4915 c0.61 0 1.0336 -0.30508 1.0336 -1.0169 c0 -2.0847 -1.6102 -3.9831 -4.0847 -3.9831 c-2.3559 0 -4.2034 1.8644 -4.2034 4.3051 c0 2.5422 1.9322 4.288 4.3051 4.288 c1.5085 0 2.6949 -0.61017 3.4237 -1.5932 c0.10186 -0.13559 0.067963 -0.23729 -0.033568 -0.37288 l-0.32203 -0.42373 c-0.13559 -0.16933 -0.27119 -0.15254 -0.44085 -0.050847 c-0.5422 0.44068 -1.4405 0.81373 -2.4236 0.81373 c-1.3898 0 -2.3729 -0.84746 -2.5593 -1.9661 l5.3051 0 z M2.5592 19.0508 c0.067797 -0.81356 0.83051 -1.8644 2.2203 -1.8644 c1.4068 0 2.1356 1.0678 2.1864 1.8644 l-4.4068 0 z M24.949423728813557 23.64424 c0.050847 0.18644 -0.016784 0.3561 -0.16916 0.3561 l-1.1017 0 c-0.42373 0 -0.66102 -0.28797 -0.66102 -0.6778 l0 -4.4237 c0 -1.1017 -0.77966 -1.7458 -1.8983 -1.7458 c-0.9661 0 -1.7797 0.55932 -2.4746 1.2542 c0.016784 0.10169 0.016784 0.20339 0.016784 0.3222 l0 3.7456 c0.016949 0.47458 0.050847 0.83051 0.10169 1.1695 c0.033898 0.18644 -0.016949 0.35576 -0.16949 0.35576 l-1.1017 0 c-0.44068 0 -0.66102 -0.28797 -0.66102 -0.6778 l0 -4.4237 c0 -1.1017 -0.77966 -1.7458 -1.8985 -1.7458 c-0.96593 0 -1.7795 0.54237 -2.4575 1.2373 l0 5.339 c0 0.15238 -0.11864 0.27102 -0.27119 0.27102 l-1.322 0 c-0.15254 0 -0.25424 -0.11864 -0.25424 -0.27102 l0 -7.8476 c0 -0.15238 0.10169 -0.27119 0.25424 -0.27119 l0.91525 0 c0.40678 0 0.66102 0.42373 0.67797 0.72881 l0 0.16949 c0.66102 -0.50864 1.5424 -1 2.6949 -1 c1.1695 0 2.339 0.49136 2.9831 1.4405 c0.67797 -0.62712 1.7288 -1.4407 3.2203 -1.4407 c1.7458 0 3.4914 1.1017 3.4914 3.2205 l0 3.7456 c0 0.47458 0.050847 0.83051 0.084746 1.1695 z M34.542359322033896 15.6102 c0.15254 0 0.25424 0.11881 0.25424 0.28831 l0 7.8305 c0 0.15238 -0.10169 0.27102 -0.23729 0.27102 l-1.0508 0 c-0.28814 0 -0.52542 -0.42356 -0.54237 -0.71169 l0 -0.18644 c-0.66102 0.50847 -1.5593 0.99983 -2.7119 0.99983 c-1.7458 0 -3.4915 -1.1015 -3.4915 -3.2202 l0 -3.7458 c0 -0.45763 -0.033898 -0.81356 -0.084746 -1.1695 c-0.033898 -0.18644 0.016949 -0.35593 0.16949 -0.35593 l1.1017 0 c0.42373 0 0.66102 0.28814 0.66102 0.67797 l0 4.4237 c0 1.1186 0.76271 1.7458 1.8983 1.7458 c0.9661 0 1.7627 -0.54237 2.4576 -1.2373 l0 -5.322 c0 -0.16949 0.10169 -0.28831 0.25407 -0.28831 l1.3222 0 z M41.86421355932203 23.4578 c0.050847 0.13559 -0.050681 0.22 -0.16933 0.30475 c-0.28814 0.18644 -0.91525 0.32203 -1.5424 0.32203 c-1.8136 0 -2.4746 -0.9322 -2.4746 -3.1186 l0 -3.5763 l-1 0 c-0.15254 0 -0.27119 -0.10169 -0.27119 -0.27119 l0 -0.28814 c0 -0.13559 0.033898 -0.23712 0.13559 -0.33898 c0.98305 -0.79661 1.7627 -1.6269 2.4407 -3.339 c0.050847 -0.11864 0.10169 -0.18644 0.18644 -0.18644 l0.18644 0 c0.13559 0 0.18644 0.067797 0.18644 0.22034 l0 2.4237 l1.7797 0 c0.15254 0 0.28814 0.11881 0.28814 0.28831 l0 1.2203 c0 0.15254 -0.13559 0.27119 -0.28814 0.27119 l-1.4746 0 c-0.13559 0 -0.25424 -0.016949 -0.32203 -0.050847 l0 3.4576 c0 0.98305 0.11864 1.5424 0.94915 1.5424 c0.35593 0 0.59322 -0.050847 0.79661 -0.10169 s0.33898 0.033898 0.37288 0.22051 z M47.5761220338983 24.11864 c2.3729 0 4.339 -1.8812 4.339 -4.3049 c0 -2.4746 -1.9661 -4.322 -4.339 -4.322 s-4.339 1.8475 -4.339 4.322 c0 2.4237 1.9661 4.3049 4.339 4.3049 z M47.5761220338983 22.39 c-1.4576 0 -2.5424 -1.2034 -2.5424 -2.5593 c0 -1.4068 1.0847 -2.6102 2.5424 -2.6102 s2.5424 1.2034 2.5424 2.6102 c0 1.3559 -1.0847 2.5593 -2.5424 2.5593 z"></path></g><g id="SvgjsG6989" featureKey="text3" fill="#c43636" transform="matrix(1.0533705918103904,0,0,1.0533705918103904,22.250820798501177,60.57163254747861)"><path d="M1.62 21.82 c0.12 -0.14 0.28 -0.12 0.42 0.02 c0.46 0.4 1.08 0.7 1.94 0.7 c2.04 0 2.76 -1.26 2.76 -3 l0 -9.24 c0 -0.2 0.1 -0.3 0.3 -0.3 l1.14 0 c0.2 0 0.3 0.1 0.3 0.3 l0 9.34 c0 2.72 -1.64 4.5 -4.5 4.5 c-1.36 0 -2.42 -0.44 -3.18 -1.18 c-0.14 -0.12 -0.1 -0.26 0.02 -0.4 z M16.105143646870236 15.94 c2.2 0.48 4.44 1.2 4.44 4.06 c0 2.66 -1.38 4.1 -4.02 4.1 l-1.48 0 c-2.52 0 -3.9 -1.36 -4.02 -3.82 c0 -0.22 0.12 -0.34 0.34 -0.34 l1.04 0 c0.22 0 0.36 0.12 0.36 0.34 c0.08 1.58 0.76 2.24 2.28 2.24 l1.48 0 c1.62 0 2.28 -0.68 2.28 -2.52 s-1.24 -2.1 -2.74 -2.46 l-0.88 -0.2 c-2.36 -0.52 -4 -1.26 -4 -3.8 c0 -2.48 1.42 -3.64 4.04 -3.64 l0.98 0 c2.48 0 3.8 1.36 3.92 3.76 c0.02 0.22 -0.12 0.34 -0.34 0.34 l-1.04 0 c-0.2 0 -0.34 -0.12 -0.36 -0.34 c-0.08 -1.54 -0.72 -2.18 -2.18 -2.18 l-0.98 0 c-1.6 0 -2.3 0.38 -2.3 2.06 c0 1.62 0.72 1.84 2.3 2.2 z M28.510287293740472 9.9 c2.64 0 4.02 1.5 4.02 4.16 l0 5.88 c0 2.66 -1.38 4.16 -4.02 4.16 l-1.7 0 c-2.64 0 -4.02 -1.5 -4.02 -4.16 l0 -5.88 c0 -2.66 1.38 -4.16 4.02 -4.16 l1.7 0 z M30.79028729374047 19.94 l0 -5.88 c0 -1.84 -0.68 -2.58 -2.28 -2.58 l-1.7 0 c-1.62 0 -2.28 0.74 -2.28 2.58 l0 5.88 c0 1.84 0.66 2.58 2.28 2.58 l1.7 0 c1.6 0 2.28 -0.74 2.28 -2.58 z M44.335430940610706 10 c0.2 0 0.3 0.1 0.3 0.3 l0 13.4 c0 0.2 -0.1 0.3 -0.3 0.3 l-1.76 0 c-0.16 0 -0.28 -0.06 -0.36 -0.22 l-5.2 -11.24 l0 11.16 c0 0.2 -0.1 0.3 -0.3 0.3 l-1.14 0 c-0.2 0 -0.3 -0.1 -0.3 -0.3 l0 -13.4 c0 -0.2 0.1 -0.3 0.3 -0.3 l1.76 0 c0.16 0 0.28 0.06 0.36 0.22 l5.2 11.22 l0 -11.14 c0 -0.2 0.1 -0.3 0.3 -0.3 l1.14 0 z  M59.08571823435118 10 c2.6 0 3.96 1.46 3.96 4 l0 1.2 c0 2.54 -1.36 4 -3.96 4 l-3.42 0 l0 4.5 c0 0.2 -0.1 0.3 -0.3 0.3 l-1.14 0 c-0.2 0 -0.3 -0.1 -0.3 -0.3 l0 -13.4 c0 -0.2 0.1 -0.3 0.3 -0.3 l1.14 0 l3.72 0 z M61.305718234351176 15.2 l0 -1.2 c0 -1.78 -0.66 -2.42 -2.22 -2.42 l-3.42 0 l0 6.04 l3.42 0 c1.56 0 2.22 -0.64 2.22 -2.42 z M74.87086188122142 23.6 c0.1 0.24 -0.02 0.4 -0.28 0.4 l-1.12 0 c-0.18 0 -0.34 -0.08 -0.4 -0.26 l-2.02 -4.56 c-0.16 0.02 -0.32 0.02 -0.5 0.02 l-3.42 0 l0 4.5 c0 0.2 -0.1 0.3 -0.3 0.3 l-1.14 0 c-0.2 0 -0.3 -0.1 -0.3 -0.3 l0 -13.4 c0 -0.2 0.1 -0.3 0.3 -0.3 l1.14 0 l3.72 0 c2.6 0 3.96 1.4 3.96 4 l0 1.2 c0 1.74 -0.62 2.96 -1.82 3.56 z M67.13086188122142 17.62 l3.42 0 c1.56 0 2.22 -0.64 2.22 -2.42 l0 -1.2 c0 -1.78 -0.66 -2.42 -2.22 -2.42 l-3.42 0 l0 6.04 z M82.87600552809164 9.9 c2.64 0 4.02 1.5 4.02 4.16 l0 5.88 c0 2.66 -1.38 4.16 -4.02 4.16 l-1.7 0 c-2.64 0 -4.02 -1.5 -4.02 -4.16 l0 -5.88 c0 -2.66 1.38 -4.16 4.02 -4.16 l1.7 0 z M85.15600552809164 19.94 l0 -5.88 c0 -1.84 -0.68 -2.58 -2.28 -2.58 l-1.7 0 c-1.62 0 -2.28 0.74 -2.28 2.58 l0 5.88 c0 1.84 0.66 2.58 2.28 2.58 l1.7 0 c1.6 0 2.28 -0.74 2.28 -2.58 z M98.68114917496189 19.740000000000002 c0.22 0 0.34 0.12 0.34 0.34 c-0.12 2.64 -1.48 4.02 -4.02 4.02 l-1.54 0 c-2.64 0 -4.02 -1.5 -4.02 -4.16 l0 -5.88 c0 -2.66 1.38 -4.16 4.02 -4.16 l1.54 0 c2.54 0 3.9 1.38 4.02 4.02 c0 0.22 -0.12 0.34 -0.34 0.34 l-1.04 0 c-0.22 0 -0.36 -0.12 -0.36 -0.34 c-0.08 -1.78 -0.76 -2.44 -2.28 -2.44 l-1.54 0 c-1.62 0 -2.28 0.74 -2.28 2.58 l0 5.88 c0 1.84 0.66 2.58 2.28 2.58 l1.54 0 c1.52 0 2.2 -0.66 2.28 -2.44 c0 -0.22 0.14 -0.34 0.36 -0.34 l1.04 0 z M109.52629282183213 11.58 l-6.02 0 l0 4.76 l4.6 0 c0.2 0 0.3 0.1 0.3 0.3 l0 0.98 c0 0.2 -0.1 0.3 -0.3 0.3 l-4.6 0 l0 4.5 l6.12 0 c0.2 0 0.3 0.1 0.3 0.3 l0 0.98 c0 0.2 -0.1 0.3 -0.3 0.3 l-7.56 0 c-0.2 0 -0.3 -0.1 -0.3 -0.3 l0 -13.4 c0 -0.2 0.1 -0.3 0.3 -0.3 l7.46 0 c0.2 0 0.3 0.1 0.3 0.3 l0 0.98 c0 0.2 -0.1 0.3 -0.3 0.3 z M117.05143646870236 15.94 c2.2 0.48 4.44 1.2 4.44 4.06 c0 2.66 -1.38 4.1 -4.02 4.1 l-1.48 0 c-2.52 0 -3.9 -1.36 -4.02 -3.82 c0 -0.22 0.12 -0.34 0.34 -0.34 l1.04 0 c0.22 0 0.36 0.12 0.36 0.34 c0.08 1.58 0.76 2.24 2.28 2.24 l1.48 0 c1.62 0 2.28 -0.68 2.28 -2.52 s-1.24 -2.1 -2.74 -2.46 l-0.88 -0.2 c-2.36 -0.52 -4 -1.26 -4 -3.8 c0 -2.48 1.42 -3.64 4.04 -3.64 l0.98 0 c2.48 0 3.8 1.36 3.92 3.76 c0.02 0.22 -0.12 0.34 -0.34 0.34 l-1.04 0 c-0.2 0 -0.34 -0.12 -0.36 -0.34 c-0.08 -1.54 -0.72 -2.18 -2.18 -2.18 l-0.98 0 c-1.6 0 -2.3 0.38 -2.3 2.06 c0 1.62 0.72 1.84 2.3 2.2 z M128.6165801155726 15.94 c2.2 0.48 4.44 1.2 4.44 4.06 c0 2.66 -1.38 4.1 -4.02 4.1 l-1.48 0 c-2.52 0 -3.9 -1.36 -4.02 -3.82 c0 -0.22 0.12 -0.34 0.34 -0.34 l1.04 0 c0.22 0 0.36 0.12 0.36 0.34 c0.08 1.58 0.76 2.24 2.28 2.24 l1.48 0 c1.62 0 2.28 -0.68 2.28 -2.52 s-1.24 -2.1 -2.74 -2.46 l-0.88 -0.2 c-2.36 -0.52 -4 -1.26 -4 -3.8 c0 -2.48 1.42 -3.64 4.04 -3.64 l0.98 0 c2.48 0 3.8 1.36 3.92 3.76 c0.02 0.22 -0.12 0.34 -0.34 0.34 l-1.04 0 c-0.2 0 -0.34 -0.12 -0.36 -0.34 c-0.08 -1.54 -0.72 -2.18 -2.18 -2.18 l-0.98 0 c-1.6 0 -2.3 0.38 -2.3 2.06 c0 1.62 0.72 1.84 2.3 2.2 z M141.02172376244283 9.9 c2.64 0 4.02 1.5 4.02 4.16 l0 5.88 c0 2.66 -1.38 4.16 -4.02 4.16 l-1.7 0 c-2.64 0 -4.02 -1.5 -4.02 -4.16 l0 -5.88 c0 -2.66 1.38 -4.16 4.02 -4.16 l1.7 0 z M143.30172376244283 19.94 l0 -5.88 c0 -1.84 -0.68 -2.58 -2.28 -2.58 l-1.7 0 c-1.62 0 -2.28 0.74 -2.28 2.58 l0 5.88 c0 1.84 0.66 2.58 2.28 2.58 l1.7 0 c1.6 0 2.28 -0.74 2.28 -2.58 z M157.26686740931308 23.6 c0.1 0.24 -0.02 0.4 -0.28 0.4 l-1.12 0 c-0.18 0 -0.34 -0.08 -0.4 -0.26 l-2.02 -4.56 c-0.16 0.02 -0.32 0.02 -0.5 0.02 l-3.42 0 l0 4.5 c0 0.2 -0.1 0.3 -0.3 0.3 l-1.14 0 c-0.2 0 -0.3 -0.1 -0.3 -0.3 l0 -13.4 c0 -0.2 0.1 -0.3 0.3 -0.3 l1.14 0 l3.72 0 c2.6 0 3.96 1.4 3.96 4 l0 1.2 c0 1.74 -0.62 2.96 -1.82 3.56 z M149.52686740931307 17.62 l3.42 0 c1.56 0 2.22 -0.64 2.22 -2.42 l0 -1.2 c0 -1.78 -0.66 -2.42 -2.22 -2.42 l-3.42 0 l0 6.04 z"></path></g>
			</g>
		</svg>
	